<?xml version="1.0" standalone="no"?>
<!DOCTYPE svg PUBLIC "-//W3C//DTD SVG 20010904//EN"
 "http://www.w3.org/TR/2001/REC-SVG-20010904/DTD/svg10.dtd">
<svg version="1.0" xmlns="http://www.w3.org/2000/svg"
 width="384.000000pt" height="384.000000pt" viewBox="0 0 384.000000 384.000000"
 preserveAspectRatio="xMidYMid meet">
<metadata>
Created by potrace 1.11, written by Peter Selinger 2001-2013
</metadata>
<g transform="translate(0.000000,384.000000) scale(0.100000,-0.100000)"
fill="#000000" stroke="none">
<path d="M1178 2955 c-90 -17 -206 -58 -302 -107 l-70 -35 -55 26 c-47 22 -70
26 -146 26 -77 0 -98 -4 -147 -27 -73 -34 -142 -103 -176 -176 -24 -50 -27
-69 -27 -152 1 -119 21 -168 103 -249 73 -73 141 -101 247 -101 99 0 169 27
240 91 74 68 107 138 113 238 2 42 0 93 -6 114 l-11 39 62 28 c210 94 386 108
572 45 80 -27 155 -61 155 -71 0 -4 -28 -32 -61 -63 -56 -52 -62 -60 -62 -98
0 -72 -36 -45 580 -419 l202 -122 -252 -4 c-230 -4 -258 -6 -317 -27 -95 -33
-169 -82 -243 -160 -74 -79 -121 -167 -142 -269 -20 -94 -20 -481 0 -577 34
-162 146 -311 292 -388 127 -67 129 -67 798 -67 661 0 668 1 794 63 79 39 193
148 239 228 60 105 72 181 72 450 0 133 -5 261 -11 291 -40 194 -203 371 -399
434 -46 15 -110 18 -400 24 -190 3 -339 7 -332 8 18 3 52 63 52 91 0 23 -280
740 -322 823 -20 41 -62 68 -106 68 -30 0 -55 -16 -144 -93 l-56 -48 -50 31
c-75 46 -190 97 -273 120 -99 28 -303 36 -411 15z m-473 -347 c43 -47 52 -95
26 -153 -16 -36 -29 -50 -63 -65 -53 -24 -67 -24 -118 -4 -58 23 -84 70 -78
140 7 88 54 126 147 120 47 -2 59 -8 86 -38z m1437 -133 c36 -91 64 -165 62
-165 -3 0 -73 41 -156 92 l-151 92 49 40 c27 23 64 56 84 73 19 18 38 33 41
33 3 0 35 -74 71 -165z"/>
</g>
</svg>
